<svg xmlns="http://www.w3.org/2000/svg" xmlns:xlink="http://www.w3.org/1999/xlink" width="500" zoomAndPan="magnify" viewBox="0 0 375 374.999991" height="500" preserveAspectRatio="xMidYMid meet" version="1.0"><defs><g/><clipPath id="ac1a895b90"><path d="M 118.128906 99.101562 L 256.878906 99.101562 L 256.878906 237.851562 L 118.128906 237.851562 Z M 118.128906 99.101562 " clip-rule="nonzero"/></clipPath></defs><rect x="-37.5" width="450" fill="#ffffff" y="-37.499999" height="449.999989" fill-opacity="1"/><rect x="-37.5" width="450" fill="#ffffff" y="-37.499999" height="449.999989" fill-opacity="1"/><rect x="-37.5" width="450" fill="#000000" y="-37.499999" height="449.999989" fill-opacity="1"/><g clip-path="url(#ac1a895b90)"><path fill="#ffffff" d="M 253.949219 191.886719 C 252.496094 191.886719 251.320312 190.707031 251.320312 189.25 L 251.320312 108.367188 L 206.675781 153.125 C 205.644531 154.15625 203.980469 154.15625 202.953125 153.125 C 201.929688 152.09375 201.929688 150.425781 202.953125 149.394531 L 252.089844 100.136719 C 252.839844 99.382812 253.972656 99.15625 254.957031 99.566406 C 255.9375 99.972656 256.578125 100.933594 256.578125 102 L 256.578125 189.25 C 256.578125 190.707031 255.402344 191.886719 253.949219 191.886719 Z M 121.074219 237.851562 C 119.621094 237.851562 118.441406 236.671875 118.441406 235.214844 L 118.441406 143.289062 C 118.441406 142.222656 119.082031 141.257812 120.066406 140.851562 C 121.050781 140.441406 122.179688 140.667969 122.933594 141.421875 L 168.78125 187.386719 C 169.808594 188.417969 169.808594 190.085938 168.78125 191.117188 C 167.753906 192.144531 166.085938 192.144531 165.058594 191.117188 L 123.703125 149.652344 L 123.703125 235.214844 C 123.703125 236.671875 122.523438 237.851562 121.074219 237.851562 Z M 253.949219 237.851562 C 253.277344 237.851562 252.601562 237.59375 252.089844 237.078125 L 119.214844 103.867188 C 118.1875 102.835938 118.1875 101.167969 119.214844 100.136719 C 120.242188 99.109375 121.90625 99.109375 122.933594 100.136719 L 255.808594 233.351562 C 256.835938 234.378906 256.835938 236.050781 255.808594 237.078125 C 255.292969 237.59375 254.621094 237.851562 253.949219 237.851562 " fill-opacity="1" fill-rule="nonzero"/></g><g fill="#fffbfa" fill-opacity="1"><g transform="translate(150.56481, 261.54845)"><g><path d="M 7.851562 0 C 8.035156 0 8.132812 -0.09375 8.132812 -0.28125 L 8.132812 -2.097656 C 8.132812 -2.28125 8.035156 -2.378906 7.851562 -2.378906 L 3.832031 -2.378906 L 3.832031 -3.609375 L 7.304688 -3.609375 C 7.488281 -3.609375 7.585938 -3.710938 7.585938 -3.886719 L 7.585938 -5.570312 C 7.585938 -5.753906 7.488281 -5.847656 7.304688 -5.847656 L 3.832031 -5.847656 L 3.832031 -8.117188 L 7.851562 -8.117188 C 8.035156 -8.117188 8.132812 -8.214844 8.132812 -8.398438 L 8.132812 -10.214844 C 8.132812 -10.402344 8.035156 -10.496094 7.851562 -10.496094 L 1.320312 -10.496094 C 1.132812 -10.496094 1.039062 -10.402344 1.039062 -10.214844 L 1.039062 -0.28125 C 1.039062 -0.09375 1.132812 0 1.320312 0 Z M 7.851562 0 "/></g></g></g><g fill="#fffbfa" fill-opacity="1"><g transform="translate(170.694654, 261.54845)"><g><path d="M 3.5 0 C 3.683594 0 3.777344 -0.09375 3.777344 -0.28125 L 3.777344 -4.046875 L 6.144531 -1.285156 C 6.273438 -1.132812 6.410156 -1.132812 6.53125 -1.285156 L 8.929688 -4.074219 L 8.929688 -0.28125 C 8.929688 -0.09375 9.027344 0 9.210938 0 L 11.378906 0 C 11.5625 0 11.65625 -0.09375 11.65625 -0.28125 L 11.65625 -10.257812 C 11.65625 -10.777344 11.296875 -10.898438 10.972656 -10.496094 L 6.339844 -4.703125 L 1.734375 -10.496094 C 1.402344 -10.921875 1.050781 -10.777344 1.050781 -10.257812 L 1.050781 -0.28125 C 1.050781 -0.09375 1.148438 0 1.332031 0 Z M 3.5 0 "/></g></g></g><g fill="#fffbfa" fill-opacity="1"><g transform="translate(194.602662, 261.54845)"><g><path d="M 6.996094 0 C 7.183594 0 7.277344 -0.09375 7.277344 -0.28125 L 7.277344 -2.097656 C 7.277344 -2.28125 7.183594 -2.378906 6.996094 -2.378906 L 3.832031 -2.378906 L 3.832031 -10.214844 C 3.832031 -10.402344 3.738281 -10.496094 3.554688 -10.496094 L 1.320312 -10.496094 C 1.132812 -10.496094 1.039062 -10.402344 1.039062 -10.214844 L 1.039062 -0.28125 C 1.039062 -0.09375 1.132812 0 1.320312 0 Z M 6.996094 0 "/></g></g></g><g fill="#fffbfa" fill-opacity="1"><g transform="translate(213.372911, 261.54845)"><g><path d="M 3.582031 0 C 3.765625 0 3.859375 -0.09375 3.859375 -0.28125 L 3.859375 -4.605469 L 7.011719 -0.171875 C 7.09375 -0.0546875 7.210938 0 7.347656 0 L 10.46875 0 C 10.695312 0 10.777344 -0.15625 10.632812 -0.335938 L 6.8125 -5.609375 L 10.695312 -10.148438 C 10.84375 -10.324219 10.777344 -10.496094 10.539062 -10.496094 L 7.652344 -10.496094 C 7.515625 -10.496094 7.402344 -10.457031 7.304688 -10.339844 L 3.859375 -6.382812 L 3.859375 -10.214844 C 3.859375 -10.402344 3.765625 -10.496094 3.582031 -10.496094 L 1.320312 -10.496094 C 1.132812 -10.496094 1.039062 -10.402344 1.039062 -10.214844 L 1.039062 -0.28125 C 1.039062 -0.09375 1.132812 0 1.320312 0 Z M 3.582031 0 "/></g></g></g><g fill="#fffbfa" fill-opacity="1"><g transform="translate(165.356571, 274.029634)"><g><path d="M 0.152344 0 L 0.609375 0 L 1.113281 -1.230469 L 3.660156 -1.230469 L 4.171875 0 L 4.621094 0 L 2.589844 -4.898438 L 2.183594 -4.898438 Z M 1.28125 -1.625 L 2.386719 -4.320312 L 3.5 -1.625 Z M 1.28125 -1.625 "/></g></g></g><g fill="#fffbfa" fill-opacity="1"><g transform="translate(172.937772, 274.029634)"><g><path d="M 2.925781 0.0898438 C 4.417969 0.0898438 5.410156 -1.023438 5.398438 -2.574219 L 2.773438 -2.574219 L 2.773438 -2.171875 L 4.941406 -2.171875 C 4.851562 -1.097656 4.074219 -0.335938 2.933594 -0.335938 C 1.722656 -0.335938 0.882812 -1.195312 0.882812 -2.449219 C 0.882812 -3.703125 1.714844 -4.5625 2.933594 -4.5625 C 3.808594 -4.5625 4.480469 -4.117188 4.789062 -3.386719 L 5.25 -3.386719 C 4.933594 -4.339844 4.046875 -4.992188 2.910156 -4.992188 C 1.476562 -4.992188 0.449219 -3.933594 0.449219 -2.449219 C 0.449219 -0.964844 1.476562 0.0898438 2.925781 0.0898438 Z M 2.925781 0.0898438 "/></g></g></g><g fill="#fffbfa" fill-opacity="1"><g transform="translate(181.562, 274.029634)"><g><path d="M 0.792969 0 L 3.753906 0 L 3.753906 -0.398438 L 1.21875 -0.398438 L 1.21875 -2.304688 L 3.492188 -2.304688 L 3.492188 -2.695312 L 1.21875 -2.695312 L 1.21875 -4.5 L 3.675781 -4.5 L 3.675781 -4.898438 L 0.792969 -4.898438 Z M 0.792969 0 "/></g></g></g><g fill="#fffbfa" fill-opacity="1"><g transform="translate(188.625181, 274.029634)"><g><path d="M 0.792969 0 L 1.210938 0 L 1.210938 -4.171875 L 4.191406 0 L 4.59375 0 L 4.59375 -4.898438 L 4.171875 -4.898438 L 4.171875 -0.734375 L 1.191406 -4.898438 L 0.792969 -4.898438 Z M 0.792969 0 "/></g></g></g><g fill="#fffbfa" fill-opacity="1"><g transform="translate(196.808393, 274.029634)"><g><path d="M 2.933594 0.0898438 C 4.089844 0.0898438 5.03125 -0.589844 5.335938 -1.644531 L 4.886719 -1.644531 C 4.613281 -0.832031 3.855469 -0.335938 2.941406 -0.335938 C 1.742188 -0.335938 0.882812 -1.195312 0.882812 -2.449219 C 0.882812 -3.703125 1.742188 -4.5625 2.941406 -4.5625 C 3.835938 -4.5625 4.5625 -4.089844 4.84375 -3.3125 L 5.292969 -3.3125 C 4.96875 -4.339844 4.054688 -4.992188 2.933594 -4.992188 C 1.492188 -4.992188 0.449219 -3.941406 0.449219 -2.449219 C 0.449219 -0.960938 1.492188 0.0898438 2.933594 0.0898438 Z M 2.933594 0.0898438 "/></g></g></g><g fill="#fffbfa" fill-opacity="1"><g transform="translate(205.362622, 274.029634)"><g><path d="M 0.792969 0 L 3.753906 0 L 3.753906 -0.398438 L 1.21875 -0.398438 L 1.21875 -2.304688 L 3.492188 -2.304688 L 3.492188 -2.695312 L 1.21875 -2.695312 L 1.21875 -4.5 L 3.675781 -4.5 L 3.675781 -4.898438 L 0.792969 -4.898438 Z M 0.792969 0 "/></g></g></g><g fill="#fffbfa" fill-opacity="1"><g transform="translate(161.44633, 281.029787)"><g><path d="M 0.792969 0 L 2.339844 0 C 3.898438 0 4.886719 -0.972656 4.886719 -2.449219 C 4.886719 -3.925781 3.898438 -4.898438 2.339844 -4.898438 L 0.792969 -4.898438 Z M 1.21875 -0.40625 L 1.21875 -4.492188 L 2.324219 -4.492188 C 3.632812 -4.492188 4.453125 -3.695312 4.453125 -2.449219 C 4.453125 -1.203125 3.640625 -0.40625 2.339844 -0.40625 Z M 1.21875 -0.40625 "/></g></g></g><g fill="#fffbfa" fill-opacity="1"><g transform="translate(169.580541, 281.029787)"><g><path d="M 0.792969 0 L 1.21875 0 L 1.21875 -4.898438 L 0.792969 -4.898438 Z M 0.792969 0 "/></g></g></g><g fill="#fffbfa" fill-opacity="1"><g transform="translate(174.389664, 281.029787)"><g><path d="M 2.925781 0.0898438 C 4.417969 0.0898438 5.410156 -1.023438 5.398438 -2.574219 L 2.773438 -2.574219 L 2.773438 -2.171875 L 4.941406 -2.171875 C 4.851562 -1.097656 4.074219 -0.335938 2.933594 -0.335938 C 1.722656 -0.335938 0.882812 -1.195312 0.882812 -2.449219 C 0.882812 -3.703125 1.714844 -4.5625 2.933594 -4.5625 C 3.808594 -4.5625 4.480469 -4.117188 4.789062 -3.386719 L 5.25 -3.386719 C 4.933594 -4.339844 4.046875 -4.992188 2.910156 -4.992188 C 1.476562 -4.992188 0.449219 -3.933594 0.449219 -2.449219 C 0.449219 -0.964844 1.476562 0.0898438 2.925781 0.0898438 Z M 2.925781 0.0898438 "/></g></g></g><g fill="#fffbfa" fill-opacity="1"><g transform="translate(183.013893, 281.029787)"><g><path d="M 0.792969 0 L 1.21875 0 L 1.21875 -4.898438 L 0.792969 -4.898438 Z M 0.792969 0 "/></g></g></g><g fill="#fffbfa" fill-opacity="1"><g transform="translate(187.823016, 281.029787)"><g><path d="M 1.953125 0 L 2.375 0 L 2.375 -4.492188 L 4.066406 -4.492188 L 4.066406 -4.898438 L 0.265625 -4.898438 L 0.265625 -4.492188 L 1.953125 -4.492188 Z M 1.953125 0 "/></g></g></g><g fill="#fffbfa" fill-opacity="1"><g transform="translate(194.956203, 281.029787)"><g><path d="M 0.152344 0 L 0.609375 0 L 1.113281 -1.230469 L 3.660156 -1.230469 L 4.171875 0 L 4.621094 0 L 2.589844 -4.898438 L 2.183594 -4.898438 Z M 1.28125 -1.625 L 2.386719 -4.320312 L 3.5 -1.625 Z M 1.28125 -1.625 "/></g></g></g><g fill="#fffbfa" fill-opacity="1"><g transform="translate(202.537405, 281.029787)"><g><path d="M 0.792969 0 L 3.703125 0 L 3.703125 -0.40625 L 1.21875 -0.40625 L 1.21875 -4.898438 L 0.792969 -4.898438 Z M 0.792969 0 "/></g></g></g><g fill="#fffbfa" fill-opacity="1"><g transform="translate(209.278578, 281.029787)"><g><path d="M 0.792969 0 L 3.753906 0 L 3.753906 -0.398438 L 1.21875 -0.398438 L 1.21875 -2.304688 L 3.492188 -2.304688 L 3.492188 -2.695312 L 1.21875 -2.695312 L 1.21875 -4.5 L 3.675781 -4.5 L 3.675781 -4.898438 L 0.792969 -4.898438 Z M 0.792969 0 "/></g></g></g></svg>